<svg width="900" height="760" viewBox="0 0 900 760" fill="none" xmlns="http://www.w3.org/2000/svg">
  <rect width="900" height="760" rx="40" fill="#F8FAFC"/>
  <rect x="28" y="28" width="844" height="704" rx="34" fill="white" stroke="#E5E7EB"/>
  <rect x="60" y="58" width="240" height="18" rx="9" fill="#DBEAFE"/>
  <rect x="60" y="92" width="310" height="34" rx="12" fill="#111827"/>
  <rect x="716" y="62" width="116" height="36" rx="18" fill="#ECFDF5"/>
  <circle cx="742" cy="80" r="7" fill="#10B981"/>
  <rect x="757" y="74" width="52" height="12" rx="6" fill="#047857"/>

  <rect x="60" y="156" width="360" height="220" rx="26" fill="#F8FAFC" stroke="#E5E7EB"/>
  <rect x="88" y="184" width="110" height="14" rx="7" fill="#BFDBFE"/>
  <rect x="88" y="214" width="170" height="34" rx="12" fill="#1D4ED8"/>
  <rect x="88" y="264" width="128" height="10" rx="5" fill="#CBD5E1"/>
  <rect x="88" y="286" width="214" height="10" rx="5" fill="#E2E8F0"/>
  <rect x="88" y="308" width="184" height="10" rx="5" fill="#E2E8F0"/>

  <path d="M90 345C132 330 150 334 186 314C215 299 232 277 266 277C306 277 323 317 357 317C379 317 397 305 420 286" stroke="#06B6D4" stroke-width="8" stroke-linecap="round"/>
  <circle cx="90" cy="345" r="7" fill="#06B6D4"/>
  <circle cx="186" cy="314" r="7" fill="#06B6D4"/>
  <circle cx="266" cy="277" r="7" fill="#06B6D4"/>
  <circle cx="357" cy="317" r="7" fill="#06B6D4"/>
  <circle cx="420" cy="286" r="7" fill="#06B6D4"/>

  <rect x="444" y="156" width="180" height="104" rx="22" fill="#FFFFFF" stroke="#E5E7EB"/>
  <rect x="470" y="182" width="66" height="12" rx="6" fill="#BFDBFE"/>
  <rect x="470" y="206" width="82" height="30" rx="10" fill="#111827"/>
  <rect x="470" y="222" width="64" height="4" rx="2" fill="#F8FAFC"/>
  <rect x="560" y="188" width="38" height="38" rx="12" fill="#DBEAFE"/>
  <path d="M572 214L579 206L585 211L594 198" stroke="#1D4ED8" stroke-width="3.5" stroke-linecap="round" stroke-linejoin="round"/>

  <rect x="652" y="156" width="180" height="104" rx="22" fill="#FFFFFF" stroke="#E5E7EB"/>
  <rect x="678" y="182" width="62" height="12" rx="6" fill="#CFFAFE"/>
  <rect x="678" y="206" width="76" height="30" rx="10" fill="#111827"/>
  <rect x="678" y="222" width="60" height="4" rx="2" fill="#F8FAFC"/>
  <rect x="768" y="188" width="38" height="38" rx="12" fill="#ECFDF5"/>
  <path d="M777 214H797" stroke="#10B981" stroke-width="3.5" stroke-linecap="round"/>
  <path d="M787 204V224" stroke="#10B981" stroke-width="3.5" stroke-linecap="round"/>

  <rect x="444" y="284" width="388" height="196" rx="26" fill="#F8FAFC" stroke="#E5E7EB"/>
  <rect x="472" y="312" width="120" height="14" rx="7" fill="#BFDBFE"/>
  <rect x="472" y="342" width="148" height="10" rx="5" fill="#CBD5E1"/>

  <rect x="476" y="396" width="32" height="52" rx="10" fill="#DBEAFE"/>
  <rect x="526" y="372" width="32" height="76" rx="10" fill="#BFDBFE"/>
  <rect x="576" y="350" width="32" height="98" rx="10" fill="#93C5FD"/>
  <rect x="626" y="324" width="32" height="124" rx="10" fill="#60A5FA"/>
  <rect x="676" y="302" width="32" height="146" rx="10" fill="#3B82F6"/>
  <rect x="726" y="276" width="32" height="172" rx="10" fill="#1D4ED8"/>

  <rect x="470" y="500" width="362" height="192" rx="26" fill="#FFFFFF" stroke="#E5E7EB"/>
  <rect x="498" y="528" width="152" height="14" rx="7" fill="#BBF7D0"/>
  <circle cx="585" cy="614" r="58" fill="#ECFEFF"/>
  <circle cx="585" cy="614" r="38" fill="white"/>
  <path d="M585 556A58 58 0 0 1 638 591L603 603A20 20 0 0 0 585 594V556Z" fill="#1D4ED8"/>
  <path d="M638 591A58 58 0 0 1 613 665L589 637A20 20 0 0 0 603 603L638 591Z" fill="#06B6D4"/>
  <path d="M613 665A58 58 0 0 1 533 642L569 631A20 20 0 0 0 589 637L613 665Z" fill="#10B981"/>

  <rect x="674" y="566" width="102" height="12" rx="6" fill="#DBEAFE"/>
  <rect x="674" y="592" width="74" height="12" rx="6" fill="#CFFAFE"/>
  <rect x="674" y="618" width="54" height="12" rx="6" fill="#BBF7D0"/>
  <rect x="760" y="564" width="38" height="16" rx="8" fill="#1D4ED8"/>
  <rect x="760" y="590" width="28" height="16" rx="8" fill="#06B6D4"/>
  <rect x="760" y="616" width="20" height="16" rx="8" fill="#10B981"/>

  <rect x="60" y="404" width="360" height="288" rx="26" fill="#FFFFFF" stroke="#E5E7EB"/>
  <rect x="88" y="432" width="152" height="14" rx="7" fill="#E0E7FF"/>
  <rect x="88" y="462" width="210" height="10" rx="5" fill="#CBD5E1"/>
  <rect x="88" y="518" width="220" height="18" rx="9" fill="#E5E7EB"/>
  <rect x="88" y="522" width="154" height="10" rx="5" fill="#1D4ED8"/>
  <rect x="88" y="558" width="220" height="18" rx="9" fill="#E5E7EB"/>
  <rect x="88" y="562" width="118" height="10" rx="5" fill="#06B6D4"/>
  <rect x="88" y="598" width="220" height="18" rx="9" fill="#E5E7EB"/>
  <rect x="88" y="602" width="86" height="10" rx="5" fill="#10B981"/>
  <rect x="324" y="504" width="68" height="132" rx="20" fill="#F8FAFC"/>
  <rect x="345" y="525" width="26" height="26" rx="13" fill="#DBEAFE"/>
  <rect x="338" y="568" width="40" height="10" rx="5" fill="#CBD5E1"/>
  <rect x="338" y="590" width="40" height="10" rx="5" fill="#E2E8F0"/>
</svg>
