<svg width="2000" height="2000" viewBox="0 0 2000 2000" fill="none" xmlns="http://www.w3.org/2000/svg">
<path d="M1229 583C1253.3 583 1273 602.699 1273 627V801.126C1255.03 816.362 1237.29 830.526 1219.81 843.673C1213.25 840.367 1205.83 838.5 1198 838.5C1171.21 838.5 1149.5 860.214 1149.5 887C1149.5 888.665 1149.58 890.312 1149.75 891.938C1140.75 897.569 1131.83 902.928 1123 908.025V627C1123 602.699 1142.7 583 1167 583H1229Z" fill="#4CAF27"/>
<path d="M1090 1063C1090 1087.3 1070.3 1107 1046 1107H984C959.699 1107 940 1087.3 940 1063V1029.24C954.06 1026.32 968.433 1022.77 983.099 1018.53C991.616 1025.97 1002.78 1030.5 1015 1030.5C1039.17 1030.5 1059.22 1012.81 1062.89 989.675C1071.85 985.8 1080.88 981.676 1090 977.298V1063Z" fill="#0D6EBD"/>
<path d="M1046 420C1070.3 420 1090 439.699 1090 464V926.075C1075.67 933.481 1061.59 940.193 1047.77 946.248C1039.15 938.344 1027.64 933.5 1015 933.5C990.459 933.5 970.176 951.727 966.948 975.382C957.812 977.948 948.828 980.218 940 982.208V464C940 439.699 959.699 420 984 420H1046Z" fill="#0D6EBD"/>
<path d="M863 625C887.301 625 907 644.699 907 669V988.482C896 990.18 885.278 991.434 874.847 992.273C866.702 976.946 850.584 966.5 832 966.5C814.406 966.5 799.022 975.862 790.521 989.859C778.726 988.099 767.544 985.759 757 982.928V669C757 644.699 776.699 625 801 625H863Z" fill="#4CAF27"/>
<path d="M1381 697C1400.33 697 1416 712.67 1416 732C1416 751.33 1400.33 767 1381 767C1374.74 767 1368.86 765.355 1363.78 762.476C1318.48 806.46 1274.16 843.952 1231.12 875.659C1232.34 879.216 1233 883.031 1233 887C1233 906.33 1217.33 922 1198 922C1189.48 922 1181.66 918.951 1175.59 913.887C1132.06 941.753 1090.07 963.696 1049.97 980.51C1049.99 981.004 1050 981.501 1050 982C1050 1001.33 1034.33 1017 1015 1017C1003.66 1017 993.575 1011.6 987.18 1003.24C943.682 1016.46 902.903 1023.51 865.368 1025.59C860.882 1039.74 847.64 1050 832 1050C815.728 1050 802.051 1038.9 798.13 1023.85C745.32 1017.9 701.549 1001.27 668.927 978.773C663.271 982.698 656.405 985 649 985C629.67 985 614 969.33 614 950C614 930.67 629.67 915 649 915C668.33 915 684 930.67 684 950C684 954.974 682.959 959.704 681.089 963.988C710.35 983.677 750.108 998.796 798.583 1004.56C803.024 990.329 816.306 980 832 980C848.369 980 862.112 991.238 865.938 1006.42C901.012 1004.41 939.241 997.872 980.183 985.601C980.062 984.417 980 983.216 980 982C980 962.67 995.67 947 1015 947C1027.12 947 1037.8 953.164 1044.08 962.527C1082.52 946.336 1122.88 925.215 1164.88 898.34C1163.66 894.783 1163 890.969 1163 887C1163 867.67 1178.67 852 1198 852C1206.51 852 1214.31 855.037 1220.38 860.086C1262.4 829.047 1305.84 792.266 1350.4 748.993C1347.6 743.961 1346 738.167 1346 732C1346 712.67 1361.67 697 1381 697Z" fill="url(#paint0_linear_39_271)"/>
<path d="M351.596 1536.5C348.863 1536.5 346.246 1536.12 343.746 1535.35C341.246 1534.55 339.263 1533.53 337.796 1532.3L340.046 1527.25C341.446 1528.35 343.179 1529.27 345.246 1530C347.313 1530.73 349.429 1531.1 351.596 1531.1C353.429 1531.1 354.913 1530.9 356.046 1530.5C357.179 1530.1 358.013 1529.57 358.546 1528.9C359.079 1528.2 359.346 1527.42 359.346 1526.55C359.346 1525.48 358.963 1524.63 358.196 1524C357.429 1523.33 356.429 1522.82 355.196 1522.45C353.996 1522.05 352.646 1521.68 351.146 1521.35C349.679 1521.02 348.196 1520.63 346.696 1520.2C345.229 1519.73 343.879 1519.15 342.646 1518.45C341.446 1517.72 340.463 1516.75 339.696 1515.55C338.929 1514.35 338.546 1512.82 338.546 1510.95C338.546 1509.05 339.046 1507.32 340.046 1505.75C341.079 1504.15 342.629 1502.88 344.696 1501.95C346.796 1500.98 349.446 1500.5 352.646 1500.5C354.746 1500.5 356.829 1500.77 358.896 1501.3C360.963 1501.83 362.763 1502.6 364.296 1503.6L362.246 1508.65C360.679 1507.72 359.063 1507.03 357.396 1506.6C355.729 1506.13 354.129 1505.9 352.596 1505.9C350.796 1505.9 349.329 1506.12 348.196 1506.55C347.096 1506.98 346.279 1507.55 345.746 1508.25C345.246 1508.95 344.996 1509.75 344.996 1510.65C344.996 1511.72 345.363 1512.58 346.096 1513.25C346.863 1513.88 347.846 1514.38 349.046 1514.75C350.279 1515.12 351.646 1515.48 353.146 1515.85C354.646 1516.18 356.129 1516.57 357.596 1517C359.096 1517.43 360.446 1518 361.646 1518.7C362.879 1519.4 363.863 1520.35 364.596 1521.55C365.363 1522.75 365.746 1524.27 365.746 1526.1C365.746 1527.97 365.229 1529.7 364.196 1531.3C363.196 1532.87 361.646 1534.13 359.546 1535.1C357.446 1536.03 354.796 1536.5 351.596 1536.5ZM397.091 1536.5C394.358 1536.5 391.841 1536.05 389.541 1535.15C387.241 1534.25 385.241 1533 383.541 1531.4C381.841 1529.77 380.525 1527.87 379.591 1525.7C378.658 1523.5 378.191 1521.1 378.191 1518.5C378.191 1515.9 378.658 1513.52 379.591 1511.35C380.525 1509.15 381.841 1507.25 383.541 1505.65C385.241 1504.02 387.241 1502.75 389.541 1501.85C391.841 1500.95 394.341 1500.5 397.041 1500.5C399.775 1500.5 402.275 1500.95 404.541 1501.85C406.841 1502.75 408.841 1504.02 410.541 1505.65C412.241 1507.25 413.558 1509.15 414.491 1511.35C415.425 1513.52 415.891 1515.9 415.891 1518.5C415.891 1521.1 415.425 1523.5 414.491 1525.7C413.558 1527.9 412.241 1529.8 410.541 1531.4C408.841 1533 406.841 1534.25 404.541 1535.15C402.275 1536.05 399.791 1536.5 397.091 1536.5ZM397.041 1530.8C398.808 1530.8 400.441 1530.5 401.941 1529.9C403.441 1529.3 404.741 1528.45 405.841 1527.35C406.941 1526.22 407.791 1524.92 408.391 1523.45C409.025 1521.95 409.341 1520.3 409.341 1518.5C409.341 1516.7 409.025 1515.07 408.391 1513.6C407.791 1512.1 406.941 1510.8 405.841 1509.7C404.741 1508.57 403.441 1507.7 401.941 1507.1C400.441 1506.5 398.808 1506.2 397.041 1506.2C395.275 1506.2 393.641 1506.5 392.141 1507.1C390.675 1507.7 389.375 1508.57 388.241 1509.7C387.141 1510.8 386.275 1512.1 385.641 1513.6C385.041 1515.07 384.741 1516.7 384.741 1518.5C384.741 1520.27 385.041 1521.9 385.641 1523.4C386.275 1524.9 387.141 1526.22 388.241 1527.35C389.341 1528.45 390.641 1529.3 392.141 1529.9C393.641 1530.5 395.275 1530.8 397.041 1530.8ZM431.281 1536V1501H437.781V1530.5H456.081V1536H431.281ZM484.274 1536.5C479.474 1536.5 475.708 1535.15 472.974 1532.45C470.274 1529.75 468.924 1525.85 468.924 1520.75V1501H475.424V1520.5C475.424 1524.1 476.191 1526.72 477.724 1528.35C479.291 1529.98 481.491 1530.8 484.324 1530.8C487.158 1530.8 489.341 1529.98 490.874 1528.35C492.408 1526.72 493.174 1524.1 493.174 1520.5V1501H499.574V1520.75C499.574 1525.85 498.208 1529.75 495.474 1532.45C492.774 1535.15 489.041 1536.5 484.274 1536.5ZM533.378 1536.5C530.711 1536.5 528.228 1536.07 525.928 1535.2C523.661 1534.3 521.678 1533.05 519.978 1531.45C518.311 1529.82 517.011 1527.9 516.078 1525.7C515.144 1523.5 514.678 1521.1 514.678 1518.5C514.678 1515.9 515.144 1513.5 516.078 1511.3C517.011 1509.1 518.328 1507.2 520.028 1505.6C521.728 1503.97 523.711 1502.72 525.978 1501.85C528.244 1500.95 530.728 1500.5 533.428 1500.5C536.294 1500.5 538.911 1501 541.278 1502C543.644 1502.97 545.644 1504.42 547.278 1506.35L543.078 1510.3C541.811 1508.93 540.394 1507.92 538.828 1507.25C537.261 1506.55 535.561 1506.2 533.728 1506.2C531.894 1506.2 530.211 1506.5 528.678 1507.1C527.178 1507.7 525.861 1508.55 524.728 1509.65C523.628 1510.75 522.761 1512.05 522.128 1513.55C521.528 1515.05 521.228 1516.7 521.228 1518.5C521.228 1520.3 521.528 1521.95 522.128 1523.45C522.761 1524.95 523.628 1526.25 524.728 1527.35C525.861 1528.45 527.178 1529.3 528.678 1529.9C530.211 1530.5 531.894 1530.8 533.728 1530.8C535.561 1530.8 537.261 1530.47 538.828 1529.8C540.394 1529.1 541.811 1528.05 543.078 1526.65L547.278 1530.65C545.644 1532.55 543.644 1534 541.278 1535C538.911 1536 536.278 1536.5 533.378 1536.5ZM531.628 1547.4C530.728 1547.4 529.894 1547.3 529.128 1547.1C528.361 1546.93 527.661 1546.68 527.028 1546.35L528.178 1543.4C528.711 1543.67 529.244 1543.87 529.778 1544C530.344 1544.13 530.944 1544.2 531.578 1544.2C532.544 1544.2 533.228 1544.03 533.628 1543.7C534.028 1543.37 534.228 1542.93 534.228 1542.4C534.228 1541.9 534.011 1541.5 533.578 1541.2C533.178 1540.9 532.511 1540.75 531.578 1540.75H530.028L531.378 1535.65H534.778L534.078 1538.45C535.544 1538.62 536.628 1539.08 537.328 1539.85C538.061 1540.65 538.428 1541.58 538.428 1542.65C538.428 1544.12 537.811 1545.27 536.578 1546.1C535.344 1546.97 533.694 1547.4 531.628 1547.4ZM576.257 1536.5C573.524 1536.5 571.007 1536.05 568.707 1535.15C566.407 1534.25 564.407 1533 562.707 1531.4C561.007 1529.77 559.691 1527.87 558.757 1525.7C557.824 1523.5 557.357 1521.1 557.357 1518.5C557.357 1515.9 557.824 1513.52 558.757 1511.35C559.691 1509.15 561.007 1507.25 562.707 1505.65C564.407 1504.02 566.407 1502.75 568.707 1501.85C571.007 1500.95 573.507 1500.5 576.207 1500.5C578.941 1500.5 581.441 1500.95 583.707 1501.85C586.007 1502.75 588.007 1504.02 589.707 1505.65C591.407 1507.25 592.724 1509.15 593.657 1511.35C594.591 1513.52 595.057 1515.9 595.057 1518.5C595.057 1521.1 594.591 1523.5 593.657 1525.7C592.724 1527.9 591.407 1529.8 589.707 1531.4C588.007 1533 586.007 1534.25 583.707 1535.15C581.441 1536.05 578.957 1536.5 576.257 1536.5ZM576.207 1530.8C577.974 1530.8 579.607 1530.5 581.107 1529.9C582.607 1529.3 583.907 1528.45 585.007 1527.35C586.107 1526.22 586.957 1524.92 587.557 1523.45C588.191 1521.95 588.507 1520.3 588.507 1518.5C588.507 1516.7 588.191 1515.07 587.557 1513.6C586.957 1512.1 586.107 1510.8 585.007 1509.7C583.907 1508.57 582.607 1507.7 581.107 1507.1C579.607 1506.5 577.974 1506.2 576.207 1506.2C574.441 1506.2 572.807 1506.5 571.307 1507.1C569.841 1507.7 568.541 1508.57 567.407 1509.7C566.307 1510.8 565.441 1512.1 564.807 1513.6C564.207 1515.07 563.907 1516.7 563.907 1518.5C563.907 1520.27 564.207 1521.9 564.807 1523.4C565.441 1524.9 566.307 1526.22 567.407 1527.35C568.507 1528.45 569.807 1529.3 571.307 1529.9C572.807 1530.5 574.441 1530.8 576.207 1530.8ZM580.157 1498.4C579.257 1498.4 578.457 1498.22 577.757 1497.85C577.057 1497.48 576.424 1497.08 575.857 1496.65C575.324 1496.18 574.791 1495.77 574.257 1495.4C573.724 1495.03 573.191 1494.85 572.657 1494.85C571.924 1494.85 571.341 1495.17 570.907 1495.8C570.474 1496.43 570.241 1497.18 570.207 1498.05H566.557C566.591 1496.02 567.107 1494.33 568.107 1493C569.141 1491.63 570.524 1490.95 572.257 1490.95C573.191 1490.95 574.007 1491.13 574.707 1491.5C575.407 1491.83 576.024 1492.23 576.557 1492.7C577.124 1493.17 577.674 1493.58 578.207 1493.95C578.741 1494.28 579.274 1494.45 579.807 1494.45C580.541 1494.45 581.107 1494.15 581.507 1493.55C581.941 1492.92 582.174 1492.18 582.207 1491.35H585.757C585.724 1493.35 585.207 1495.03 584.207 1496.4C583.241 1497.73 581.891 1498.4 580.157 1498.4ZM610.447 1536V1501H635.997V1506.45H616.947V1530.55H636.697V1536H610.447ZM616.447 1520.9V1515.55H633.847V1520.9H616.447ZM663.293 1536.5C660.56 1536.5 657.943 1536.12 655.443 1535.35C652.943 1534.55 650.96 1533.53 649.493 1532.3L651.743 1527.25C653.143 1528.35 654.876 1529.27 656.943 1530C659.01 1530.73 661.126 1531.1 663.293 1531.1C665.126 1531.1 666.61 1530.9 667.743 1530.5C668.876 1530.1 669.71 1529.57 670.243 1528.9C670.776 1528.2 671.043 1527.42 671.043 1526.55C671.043 1525.48 670.66 1524.63 669.893 1524C669.126 1523.33 668.126 1522.82 666.893 1522.45C665.693 1522.05 664.343 1521.68 662.843 1521.35C661.376 1521.02 659.893 1520.63 658.393 1520.2C656.926 1519.73 655.576 1519.15 654.343 1518.45C653.143 1517.72 652.16 1516.75 651.393 1515.55C650.626 1514.35 650.243 1512.82 650.243 1510.95C650.243 1509.05 650.743 1507.32 651.743 1505.75C652.776 1504.15 654.326 1502.88 656.393 1501.95C658.493 1500.98 661.143 1500.5 664.343 1500.5C666.443 1500.5 668.526 1500.77 670.593 1501.3C672.66 1501.83 674.46 1502.6 675.993 1503.6L673.943 1508.65C672.376 1507.72 670.76 1507.03 669.093 1506.6C667.426 1506.13 665.826 1505.9 664.293 1505.9C662.493 1505.9 661.026 1506.12 659.893 1506.55C658.793 1506.98 657.976 1507.55 657.443 1508.25C656.943 1508.95 656.693 1509.75 656.693 1510.65C656.693 1511.72 657.06 1512.58 657.793 1513.25C658.56 1513.88 659.543 1514.38 660.743 1514.75C661.976 1515.12 663.343 1515.48 664.843 1515.85C666.343 1516.18 667.826 1516.57 669.293 1517C670.793 1517.43 672.143 1518 673.343 1518.7C674.576 1519.4 675.56 1520.35 676.293 1521.55C677.06 1522.75 677.443 1524.27 677.443 1526.1C677.443 1527.97 676.926 1529.7 675.893 1531.3C674.893 1532.87 673.343 1534.13 671.243 1535.1C669.143 1536.03 666.493 1536.5 663.293 1536.5ZM714.707 1536V1501H740.257V1506.45H721.207V1530.55H740.957V1536H714.707ZM720.707 1520.9V1515.55H738.107V1520.9H720.707ZM756.703 1536V1501H762.053L777.353 1526.55H774.553L789.603 1501H794.953L795.003 1536H788.853L788.803 1510.65H790.103L777.303 1532H774.403L761.403 1510.65H762.903V1536H756.703ZM835.275 1536V1501H841.775V1536H835.275ZM859.742 1536V1501H865.092L887.042 1527.95H884.392V1501H890.842V1536H885.492L863.542 1509.05H866.192V1536H859.742ZM915.821 1536V1506.5H904.221V1501H933.921V1506.5H922.321V1536H915.821ZM947.299 1536V1501H972.849V1506.45H953.799V1530.55H973.549V1536H947.299ZM953.299 1520.9V1515.55H970.699V1520.9H953.299ZM989.295 1536V1501H995.795V1530.5H1014.09V1536H989.295ZM1027.73 1536V1501H1034.23V1536H1027.73ZM1068.54 1536.5C1065.81 1536.5 1063.29 1536.07 1060.99 1535.2C1058.73 1534.3 1056.74 1533.05 1055.04 1531.45C1053.34 1529.82 1052.03 1527.9 1051.09 1525.7C1050.16 1523.5 1049.69 1521.1 1049.69 1518.5C1049.69 1515.9 1050.16 1513.5 1051.09 1511.3C1052.03 1509.1 1053.34 1507.2 1055.04 1505.6C1056.78 1503.97 1058.79 1502.72 1061.09 1501.85C1063.39 1500.95 1065.91 1500.5 1068.64 1500.5C1071.61 1500.5 1074.28 1500.98 1076.64 1501.95C1079.04 1502.92 1081.06 1504.33 1082.69 1506.2L1078.59 1510.2C1077.23 1508.83 1075.74 1507.83 1074.14 1507.2C1072.58 1506.53 1070.84 1506.2 1068.94 1506.2C1067.11 1506.2 1065.41 1506.5 1063.84 1507.1C1062.28 1507.7 1060.93 1508.55 1059.79 1509.65C1058.66 1510.75 1057.78 1512.05 1057.14 1513.55C1056.54 1515.05 1056.24 1516.7 1056.24 1518.5C1056.24 1520.27 1056.54 1521.9 1057.14 1523.4C1057.78 1524.9 1058.66 1526.22 1059.79 1527.35C1060.93 1528.45 1062.26 1529.3 1063.79 1529.9C1065.33 1530.5 1067.03 1530.8 1068.89 1530.8C1070.63 1530.8 1072.29 1530.53 1073.89 1530C1075.53 1529.43 1077.08 1528.5 1078.54 1527.2L1082.24 1532.05C1080.41 1533.52 1078.28 1534.63 1075.84 1535.4C1073.44 1536.13 1071.01 1536.5 1068.54 1536.5ZM1082.24 1532.05L1076.09 1531.2V1518.1H1082.24V1532.05ZM1099.32 1536V1501H1124.87V1506.45H1105.82V1530.55H1125.57V1536H1099.32ZM1105.32 1520.9V1515.55H1122.72V1520.9H1105.32ZM1141.31 1536V1501H1146.66L1168.61 1527.95H1165.96V1501H1172.41V1536H1167.06L1145.11 1509.05H1147.76V1536H1141.31ZM1206.49 1536.5C1203.82 1536.5 1201.34 1536.07 1199.04 1535.2C1196.77 1534.3 1194.79 1533.05 1193.09 1531.45C1191.42 1529.82 1190.12 1527.9 1189.19 1525.7C1188.26 1523.5 1187.79 1521.1 1187.79 1518.5C1187.79 1515.9 1188.26 1513.5 1189.19 1511.3C1190.12 1509.1 1191.44 1507.2 1193.14 1505.6C1194.84 1503.97 1196.82 1502.72 1199.09 1501.85C1201.36 1500.95 1203.84 1500.5 1206.54 1500.5C1209.41 1500.5 1212.02 1501 1214.39 1502C1216.76 1502.97 1218.76 1504.42 1220.39 1506.35L1216.19 1510.3C1214.92 1508.93 1213.51 1507.92 1211.94 1507.25C1210.37 1506.55 1208.67 1506.2 1206.84 1506.2C1205.01 1506.2 1203.32 1506.5 1201.79 1507.1C1200.29 1507.7 1198.97 1508.55 1197.84 1509.65C1196.74 1510.75 1195.87 1512.05 1195.24 1513.55C1194.64 1515.05 1194.34 1516.7 1194.34 1518.5C1194.34 1520.3 1194.64 1521.95 1195.24 1523.45C1195.87 1524.95 1196.74 1526.25 1197.84 1527.35C1198.97 1528.45 1200.29 1529.3 1201.79 1529.9C1203.32 1530.5 1205.01 1530.8 1206.84 1530.8C1208.67 1530.8 1210.37 1530.47 1211.94 1529.8C1213.51 1529.1 1214.92 1528.05 1216.19 1526.65L1220.39 1530.65C1218.76 1532.55 1216.76 1534 1214.39 1535C1212.02 1536 1209.39 1536.5 1206.49 1536.5ZM1234.68 1536V1501H1241.18V1536H1234.68ZM1254.2 1536L1269.95 1501H1276.35L1292.15 1536H1285.35L1271.8 1504.45H1274.4L1260.9 1536H1254.2ZM1261.45 1527.9L1263.2 1522.8H1282.1L1283.85 1527.9H1261.45ZM1327.42 1536V1501H1342.72C1346.52 1501 1349.85 1501.73 1352.72 1503.2C1355.58 1504.67 1357.82 1506.7 1359.42 1509.3C1361.02 1511.9 1361.82 1514.97 1361.82 1518.5C1361.82 1522 1361.02 1525.07 1359.42 1527.7C1357.82 1530.3 1355.58 1532.33 1352.72 1533.8C1349.85 1535.27 1346.52 1536 1342.72 1536H1327.42ZM1333.92 1530.5H1342.42C1345.02 1530.5 1347.28 1530 1349.22 1529C1351.15 1528 1352.63 1526.6 1353.67 1524.8C1354.73 1523 1355.27 1520.9 1355.27 1518.5C1355.27 1516.07 1354.73 1513.97 1353.67 1512.2C1352.63 1510.4 1351.15 1509 1349.22 1508C1347.28 1507 1345.02 1506.5 1342.42 1506.5H1333.92V1530.5ZM1377.22 1536V1501H1402.77V1506.45H1383.72V1530.55H1403.47V1536H1377.22ZM1383.22 1520.9V1515.55H1400.62V1520.9H1383.22ZM1441.54 1536V1501H1456.84C1460.64 1501 1463.97 1501.73 1466.84 1503.2C1469.71 1504.67 1471.94 1506.7 1473.54 1509.3C1475.14 1511.9 1475.94 1514.97 1475.94 1518.5C1475.94 1522 1475.14 1525.07 1473.54 1527.7C1471.94 1530.3 1469.71 1532.33 1466.84 1533.8C1463.97 1535.27 1460.64 1536 1456.84 1536H1441.54ZM1448.04 1530.5H1456.54C1459.14 1530.5 1461.41 1530 1463.34 1529C1465.27 1528 1466.76 1526.6 1467.79 1524.8C1468.86 1523 1469.39 1520.9 1469.39 1518.5C1469.39 1516.07 1468.86 1513.97 1467.79 1512.2C1466.76 1510.4 1465.27 1509 1463.34 1508C1461.41 1507 1459.14 1506.5 1456.54 1506.5H1448.04V1530.5ZM1485.91 1536L1501.66 1501H1508.06L1523.86 1536H1517.06L1503.51 1504.45H1506.11L1492.61 1536H1485.91ZM1493.16 1527.9L1494.91 1522.8H1513.81L1515.56 1527.9H1493.16ZM1536.81 1536V1501H1552.11C1555.91 1501 1559.24 1501.73 1562.11 1503.2C1564.98 1504.67 1567.21 1506.7 1568.81 1509.3C1570.41 1511.9 1571.21 1514.97 1571.21 1518.5C1571.21 1522 1570.41 1525.07 1568.81 1527.7C1567.21 1530.3 1564.98 1532.33 1562.11 1533.8C1559.24 1535.27 1555.91 1536 1552.11 1536H1536.81ZM1543.31 1530.5H1551.81C1554.41 1530.5 1556.68 1530 1558.61 1529C1560.54 1528 1562.03 1526.6 1563.06 1524.8C1564.13 1523 1564.66 1520.9 1564.66 1518.5C1564.66 1516.07 1564.13 1513.97 1563.06 1512.2C1562.03 1510.4 1560.54 1509 1558.61 1508C1556.68 1507 1554.41 1506.5 1551.81 1506.5H1543.31V1530.5ZM1603.02 1536.5C1600.29 1536.5 1597.77 1536.05 1595.47 1535.15C1593.17 1534.25 1591.17 1533 1589.47 1531.4C1587.77 1529.77 1586.45 1527.87 1585.52 1525.7C1584.59 1523.5 1584.12 1521.1 1584.12 1518.5C1584.12 1515.9 1584.59 1513.52 1585.52 1511.35C1586.45 1509.15 1587.77 1507.25 1589.47 1505.65C1591.17 1504.02 1593.17 1502.75 1595.47 1501.85C1597.77 1500.95 1600.27 1500.5 1602.97 1500.5C1605.7 1500.5 1608.2 1500.95 1610.47 1501.85C1612.77 1502.75 1614.77 1504.02 1616.47 1505.65C1618.17 1507.25 1619.49 1509.15 1620.42 1511.35C1621.35 1513.52 1621.82 1515.9 1621.82 1518.5C1621.82 1521.1 1621.35 1523.5 1620.42 1525.7C1619.49 1527.9 1618.17 1529.8 1616.47 1531.4C1614.77 1533 1612.77 1534.25 1610.47 1535.15C1608.2 1536.05 1605.72 1536.5 1603.02 1536.5ZM1602.97 1530.8C1604.74 1530.8 1606.37 1530.5 1607.87 1529.9C1609.37 1529.3 1610.67 1528.45 1611.77 1527.35C1612.87 1526.22 1613.72 1524.92 1614.32 1523.45C1614.95 1521.95 1615.27 1520.3 1615.27 1518.5C1615.27 1516.7 1614.95 1515.07 1614.32 1513.6C1613.72 1512.1 1612.87 1510.8 1611.77 1509.7C1610.67 1508.57 1609.37 1507.7 1607.87 1507.1C1606.37 1506.5 1604.74 1506.2 1602.97 1506.2C1601.2 1506.2 1599.57 1506.5 1598.07 1507.1C1596.6 1507.7 1595.3 1508.57 1594.17 1509.7C1593.07 1510.8 1592.2 1512.1 1591.57 1513.6C1590.97 1515.07 1590.67 1516.7 1590.67 1518.5C1590.67 1520.27 1590.97 1521.9 1591.57 1523.4C1592.2 1524.9 1593.07 1526.22 1594.17 1527.35C1595.27 1528.45 1596.57 1529.3 1598.07 1529.9C1599.57 1530.5 1601.2 1530.8 1602.97 1530.8ZM1648.06 1536.5C1645.33 1536.5 1642.71 1536.12 1640.21 1535.35C1637.71 1534.55 1635.73 1533.53 1634.26 1532.3L1636.51 1527.25C1637.91 1528.35 1639.64 1529.27 1641.71 1530C1643.78 1530.73 1645.89 1531.1 1648.06 1531.1C1649.89 1531.1 1651.38 1530.9 1652.51 1530.5C1653.64 1530.1 1654.48 1529.57 1655.01 1528.9C1655.54 1528.2 1655.81 1527.42 1655.81 1526.55C1655.81 1525.48 1655.43 1524.63 1654.66 1524C1653.89 1523.33 1652.89 1522.82 1651.66 1522.45C1650.46 1522.05 1649.11 1521.68 1647.61 1521.35C1646.14 1521.02 1644.66 1520.63 1643.16 1520.2C1641.69 1519.73 1640.34 1519.15 1639.11 1518.45C1637.91 1517.72 1636.93 1516.75 1636.16 1515.55C1635.39 1514.35 1635.01 1512.82 1635.01 1510.95C1635.01 1509.05 1635.51 1507.32 1636.51 1505.75C1637.54 1504.15 1639.09 1502.88 1641.16 1501.95C1643.26 1500.98 1645.91 1500.5 1649.11 1500.5C1651.21 1500.5 1653.29 1500.77 1655.36 1501.3C1657.43 1501.83 1659.23 1502.6 1660.76 1503.6L1658.71 1508.65C1657.14 1507.72 1655.53 1507.03 1653.86 1506.6C1652.19 1506.13 1650.59 1505.9 1649.06 1505.9C1647.26 1505.9 1645.79 1506.12 1644.66 1506.55C1643.56 1506.98 1642.74 1507.55 1642.21 1508.25C1641.71 1508.95 1641.46 1509.75 1641.46 1510.65C1641.46 1511.72 1641.83 1512.58 1642.56 1513.25C1643.33 1513.88 1644.31 1514.38 1645.51 1514.75C1646.74 1515.12 1648.11 1515.48 1649.61 1515.85C1651.11 1516.18 1652.59 1516.57 1654.06 1517C1655.56 1517.43 1656.91 1518 1658.11 1518.7C1659.34 1519.4 1660.33 1520.35 1661.06 1521.55C1661.83 1522.75 1662.21 1524.27 1662.21 1526.1C1662.21 1527.97 1661.69 1529.7 1660.66 1531.3C1659.66 1532.87 1658.11 1534.13 1656.01 1535.1C1653.91 1536.03 1651.26 1536.5 1648.06 1536.5Z" fill="#4CAF27"/>
<path d="M510.524 1440.5C486.524 1440.5 464.174 1436.6 443.474 1428.8C423.074 1420.7 405.224 1409.45 389.924 1395.05C374.924 1380.35 363.224 1363.1 354.824 1343.3C346.424 1323.5 342.224 1301.9 342.224 1278.5C342.224 1255.1 346.424 1233.5 354.824 1213.7C363.224 1193.9 375.074 1176.8 390.374 1162.4C405.674 1147.7 423.524 1136.45 443.924 1128.65C464.324 1120.55 486.674 1116.5 510.974 1116.5C536.774 1116.5 560.324 1121 581.624 1130C602.924 1138.7 620.924 1151.75 635.624 1169.15L597.824 1204.7C586.424 1192.4 573.674 1183.25 559.574 1177.25C545.474 1170.95 530.174 1167.8 513.674 1167.8C497.174 1167.8 482.024 1170.5 468.224 1175.9C454.724 1181.3 442.874 1188.95 432.674 1198.85C422.774 1208.75 414.974 1220.45 409.274 1233.95C403.874 1247.45 401.174 1262.3 401.174 1278.5C401.174 1294.7 403.874 1309.55 409.274 1323.05C414.974 1336.55 422.774 1348.25 432.674 1358.15C442.874 1368.05 454.724 1375.7 468.224 1381.1C482.024 1386.5 497.174 1389.2 513.674 1389.2C530.174 1389.2 545.474 1386.2 559.574 1380.2C573.674 1373.9 586.424 1364.45 597.824 1351.85L635.624 1387.85C620.924 1404.95 602.924 1418 581.624 1427C560.324 1436 536.624 1440.5 510.524 1440.5ZM828.175 1436V1387.4L825.025 1377.05V1292C825.025 1275.5 820.075 1262.75 810.175 1253.75C800.275 1244.45 785.275 1239.8 765.175 1239.8C751.675 1239.8 738.325 1241.9 725.125 1246.1C712.225 1250.3 701.275 1256.15 692.275 1263.65L670.225 1222.7C683.125 1212.8 698.425 1205.45 716.125 1200.65C734.125 1195.55 752.725 1193 771.925 1193C806.725 1193 833.575 1201.4 852.475 1218.2C871.675 1234.7 881.275 1260.35 881.275 1295.15V1436H828.175ZM752.575 1439.15C734.575 1439.15 718.825 1436.15 705.325 1430.15C691.825 1423.85 681.325 1415.3 673.825 1404.5C666.625 1393.4 663.025 1380.95 663.025 1367.15C663.025 1353.65 666.175 1341.5 672.475 1330.7C679.075 1319.9 689.725 1311.35 704.425 1305.05C719.125 1298.75 738.625 1295.6 762.925 1295.6H832.675V1332.95H766.975C747.775 1332.95 734.875 1336.1 728.275 1342.4C721.675 1348.4 718.375 1355.9 718.375 1364.9C718.375 1375.1 722.425 1383.2 730.525 1389.2C738.625 1395.2 749.875 1398.2 764.275 1398.2C778.075 1398.2 790.375 1395.05 801.175 1388.75C812.275 1382.45 820.225 1373.15 825.025 1360.85L834.475 1394.6C829.075 1408.7 819.325 1419.65 805.225 1427.45C791.425 1435.25 773.875 1439.15 752.575 1439.15ZM1064.15 1439.15C1038.95 1439.15 1016.45 1433.9 996.654 1423.4C977.154 1412.6 961.854 1397.9 950.754 1379.3C939.654 1360.7 934.104 1339.55 934.104 1315.85C934.104 1291.85 939.654 1270.7 950.754 1252.4C961.854 1233.8 977.154 1219.25 996.654 1208.75C1016.45 1198.25 1038.95 1193 1064.15 1193C1087.55 1193 1108.1 1197.8 1125.8 1207.4C1143.8 1216.7 1157.45 1230.5 1166.75 1248.8L1123.55 1274C1116.35 1262.6 1107.5 1254.2 1097 1248.8C1086.8 1243.4 1075.7 1240.7 1063.7 1240.7C1049.9 1240.7 1037.45 1243.7 1026.35 1249.7C1015.25 1255.7 1006.55 1264.4 1000.25 1275.8C993.954 1286.9 990.804 1300.25 990.804 1315.85C990.804 1331.45 993.954 1344.95 1000.25 1356.35C1006.55 1367.45 1015.25 1376 1026.35 1382C1037.45 1388 1049.9 1391 1063.7 1391C1075.7 1391 1086.8 1388.3 1097 1382.9C1107.5 1377.5 1116.35 1369.1 1123.55 1357.7L1166.75 1382.9C1157.45 1400.9 1143.8 1414.85 1125.8 1424.75C1108.1 1434.35 1087.55 1439.15 1064.15 1439.15ZM1308.9 1439.15C1282.5 1439.15 1262.1 1432.4 1247.7 1418.9C1233.3 1405.1 1226.1 1384.85 1226.1 1358.15V1142.6H1282.35V1356.8C1282.35 1368.2 1285.2 1377.05 1290.9 1383.35C1296.9 1389.65 1305.15 1392.8 1315.65 1392.8C1328.25 1392.8 1338.75 1389.5 1347.15 1382.9L1362.9 1422.95C1356.3 1428.35 1348.2 1432.4 1338.6 1435.1C1329 1437.8 1319.1 1439.15 1308.9 1439.15ZM1186.5 1240.7V1195.7H1346.7V1240.7H1186.5ZM1510.88 1439.15C1490.48 1439.15 1472.48 1435.4 1456.88 1427.9C1441.28 1420.1 1429.13 1408.4 1420.43 1392.8C1411.73 1376.9 1407.38 1356.95 1407.38 1332.95V1195.7H1463.63V1325.3C1463.63 1346.9 1468.43 1363.1 1478.03 1373.9C1487.93 1384.4 1501.88 1389.65 1519.88 1389.65C1533.08 1389.65 1544.48 1386.95 1554.08 1381.55C1563.98 1376.15 1571.63 1368.05 1577.03 1357.25C1582.73 1346.45 1585.58 1333.1 1585.58 1317.2V1195.7H1641.83V1436H1588.28V1371.2L1597.73 1391C1589.63 1406.6 1577.78 1418.6 1562.18 1427C1546.58 1435.1 1529.48 1439.15 1510.88 1439.15Z" fill="white"/>
<defs>
<linearGradient id="paint0_linear_39_271" x1="1416" y1="697" x2="614" y2="955.5" gradientUnits="userSpaceOnUse">
<stop stop-color="#4CAF27"/>
<stop offset="1" stop-color="#0D6EBD"/>
</linearGradient>
</defs>
</svg>
