<svg width="2000" height="2000" viewBox="0 0 2000 2000" fill="none" xmlns="http://www.w3.org/2000/svg">
<path d="M1480.3 594.835C1534.84 594.835 1579.05 639.049 1579.05 693.588V1084.39C1538.71 1118.59 1498.9 1150.38 1459.66 1179.89C1444.94 1172.47 1428.31 1168.28 1410.72 1168.28C1350.61 1168.28 1301.87 1217.01 1301.87 1277.13C1301.87 1280.87 1302.06 1284.56 1302.43 1288.21C1282.23 1300.85 1262.22 1312.88 1242.39 1324.32V693.588C1242.39 639.049 1286.61 594.835 1341.15 594.835H1480.3Z" fill="#4CAF27"/>
<path d="M1168.33 1672.14C1168.33 1726.68 1124.12 1770.9 1069.58 1770.9H930.424C875.884 1770.9 831.671 1726.68 831.671 1672.14V1596.37C863.227 1589.82 895.486 1581.85 928.401 1572.33C947.518 1589.03 972.573 1599.2 1000 1599.2C1054.26 1599.2 1099.24 1559.5 1107.49 1507.57C1127.59 1498.88 1147.87 1489.62 1168.33 1479.79V1672.14Z" fill="#0D6EBD"/>
<path d="M1069.58 229C1124.12 229 1168.33 273.213 1168.33 327.753V1364.83C1136.16 1381.45 1104.56 1396.51 1073.54 1410.11C1054.19 1392.37 1028.37 1381.49 1000 1381.49C944.921 1381.49 899.397 1422.4 892.153 1475.49C871.649 1481.25 851.484 1486.35 831.671 1490.81V327.753C831.671 273.213 875.884 229 930.424 229H1069.58Z" fill="#0D6EBD"/>
<path d="M658.852 689.1C713.392 689.1 757.606 733.313 757.606 787.853V1504.9C732.916 1508.71 708.853 1511.52 685.441 1513.4C667.161 1479 630.987 1455.56 589.276 1455.56C549.788 1455.56 515.261 1476.57 496.183 1507.99C469.709 1504.04 444.612 1498.78 420.947 1492.43V787.853C420.947 733.313 465.161 689.1 519.7 689.1H658.852Z" fill="#4CAF27"/>
<path d="M1821.45 850.696C1864.83 850.696 1900 885.866 1900 929.249C1900 972.633 1864.83 1007.8 1821.45 1007.8C1803.06 1007.8 1786.16 1001.49 1772.77 990.911C1672.83 1087.83 1575.11 1170.53 1480.28 1240.59C1486.02 1251.5 1489.28 1263.94 1489.28 1277.13C1489.28 1320.51 1454.11 1355.68 1410.72 1355.68C1387.25 1355.68 1366.18 1345.39 1351.79 1329.07C1256.55 1389.88 1164.73 1437.92 1077.03 1474.89C1078.03 1479.88 1078.55 1485.05 1078.55 1490.35C1078.55 1533.73 1043.38 1568.9 1000 1568.9C970.153 1568.9 944.193 1552.25 930.899 1527.74C836.669 1556.09 748.334 1571.36 666.963 1576.11C661.314 1613.94 628.685 1642.97 589.276 1642.97C548.45 1642.97 514.9 1611.82 511.086 1571.99C397.429 1558.64 303.25 1522.99 232.855 1475.29C218.749 1488.79 199.62 1497.08 178.554 1497.08C135.17 1497.08 100 1461.91 100 1418.53C100 1375.14 135.17 1339.97 178.554 1339.97C221.938 1339.97 257.107 1375.14 257.107 1418.53C257.107 1433.95 252.662 1448.33 244.984 1460.47C312.046 1505.4 402.244 1539.55 511.59 1552.7C517.243 1514.87 549.871 1485.86 589.276 1485.86C630.142 1485.86 663.718 1517.06 667.479 1556.94C746.42 1552.28 832.241 1537.5 923.947 1510.09C922.315 1503.78 921.446 1497.16 921.446 1490.35C921.446 1446.96 956.616 1411.79 1000 1411.79C1031.43 1411.79 1058.55 1430.25 1071.11 1456.92C1157.15 1420.57 1247.37 1373.35 1341.09 1313.51C1335.39 1302.64 1332.17 1290.26 1332.17 1277.13C1332.17 1233.75 1367.34 1198.58 1410.72 1198.58C1434.12 1198.58 1455.12 1208.8 1469.51 1225.03C1563.34 1155.64 1660.18 1073.63 1759.39 977.423C1749.05 964.121 1742.89 947.404 1742.89 929.249C1742.89 885.865 1778.06 850.696 1821.45 850.696Z" fill="url(#paint0_linear_41_3)"/>
<defs>
<linearGradient id="paint0_linear_41_3" x1="1900" y1="850.696" x2="99.9999" y2="1430.87" gradientUnits="userSpaceOnUse">
<stop stop-color="#4CAF27"/>
<stop offset="1" stop-color="#0D6EBD"/>
</linearGradient>
</defs>
</svg>
